{"title":"FAST AND FURIOUS 6 CAMRip Xvid READNFO-INFERNO","uid":8492651,"size":1421497539,"categoryP":"video","categoryS":"movies","magnet":"?xt=urn:btih:f0b8e9b3ba52562f63189443b90fa79b2f4c2145&amp;dn=FAST+AND+FURIOUS+6+CAMRip+Xvid+READNFO-INFERNO&amp;tr=udp%3A%2F%2Ftracker.openbittorrent.com%3A80&amp;tr=udp%3A%2F%2Fopen.demonii.com%3A1337&amp;tr=udp%3A%2F%2Ftracker.coppersurfer.tk%3A6969&amp;tr=udp%3A%2F%2Fexodus.desync.com%3A6969","seeders":0,"leechers":0,"uploader":"xxxlavalxxx","files":4,"time":1369041967,"description":"\n &lt;a href=&quot;\nhttp://www.imdb.com/title/tt1905041/&quot; rel=&quot;nofollow&quot; target=&quot;_NEW&quot;&gt;\nhttp://www.imdb.com/title/tt1905041/&lt;/a&gt;\n\n\n\nPlot: Agent Luke Hobbs enlists Dominic Toretto and his team to bring down former Special Ops soldier Owen Shaw, leader of a unit specializing in vehicular warfare. \n\n\n\nDirector:\n Justin Lin \n\nWriters:\n Chris Morgan (screenplay), Gary Scott Thompson (characters) \n\nStars:\n Dwayne Johnson, Vin Diesel, Paul Walker\n\nGenres:\n  Action |  Crime |  Thriller \n\nCountry:\n USA \n\nLanguage:\n English \n\n\n\nSOURCE=TheCod3r THANKS:)\n WORK DONE:VIDEO NEEDING ROTATING BAD AND WE ALL KNOW THE SOURCE HAD ALOT OF MOVEMENT\n SO WE ROTATED,CROPPED TOP BY 32,LEFT BY 20,RIGHT BY 12 AND BOTTOM BY 40 AND YES THERE IS STILL SOME MOVEMENT AND A FEW BOARDERS FROM TIME TO TIME!!!\n NEXT WE RESIZED AND ADDED SOME BRIGHTNESS AND LOWERED THE CONTRAST TO BRING OUT A LITTLE MORE DETAIL AND ADDED A LITTLE SHARPNESS BLA BLA BLA...\n FINALLY REACHING THE END WE ADDED A MSU DEBLOCKER AND VIDEO DENOISE FILTER AND LET HER RUN FOR ABOUT 8 HOURS THE END :lol:\n 2 SAMPLES INCLUDED SO PLEASE CHECK THEM FIRST!!!\n THERE ARE A BUNCH OF ENCODES OF THIS TORRENT SO TAKE YOUR PICK:wink:\n IF YOU DON'T HAVE ANYTHING CONSTRUCTIVE TO SAY PLEASE DO NOT BOTHER TO COMMENT.\n\n AS ALWAYS &quot;THANKS FOR STOPPING BY!&quot;\n jtr/INFERNO \n   \n\nGeneral\n Complete name                            : FAF 6 2013-INF\n Format                                   : AVI\n Format/Info                              : Audio Video Interleave\n File size                                : 1.30 GiB\n Duration                                 : 2h 0mn\n Overall bit rate                         : 1 547 Kbps\n Writing application                      : AVI-Mux GUI 1.17.8.3, \n Writing library                          : VirtualDub build 32842\n\n Video\n ID                                       : 0\n Format                                   : MPEG-4 Visual\n Format profile                           : Advanced Simple@L5\n Format settings, BVOP                    : 2\n Format settings, QPel                    : No\n Format settings, GMC                     : No warppoints\n Format settings, Matrix                  : Default (H.263)\n Muxing mode                              : Packed bitstream\n Codec ID                                 : XVID\n Codec ID/Hint                            : XviD\n Duration                                 : 2h 0mn\n Bit rate                                 : 1 399 Kbps\n Width                                    : 608 pixels\n Height                                   : 272 pixels\n Display aspect ratio                     : 2.25:1\n Frame rate                               : 50.000 fps\n Color space                              : YUV\n Chroma subsampling                       : 4:2:0\n Bit depth                                : 8 bits\n Scan type                                : Progressive\n Compression mode                         : Lossy\n Bits/(Pixel*Frame)                       : 0.169\n Stream size                              : 1.18 GiB (90%)\n Writing library                          : XviD 64\n\n Audio\n ID                                       : 1\n Format                                   : MPEG Audio\n Format version                           : Version 1\n Format profile                           : Layer 3\n Mode                                     : Joint stereo\n Mode extension                           : MS Stereo\n Codec ID                                 : 55\n Codec ID/Hint                            : MP3\n Duration                                 : 2h 0mn\n Bit rate mode                            : Constant\n Bit rate                                 : 128 Kbps\n Channel(s)                               : 2 channels\n Sampling rate                            : 48.0 KHz\n Compression mode                         : Lossy\n Stream size                              : 111 MiB (8%)\n Alignment                                : Split accross interleaves\n Interleave, duration                     : 20 ms (1.00 video frame)\n Interleave, preload duration             : 500 ms\n\n\n\n\n\n    &lt;a href=&quot;\thttp://addpix.net/viewer.php?file=06900233079028590497.jpg&quot; rel=&quot;nofollow&quot; target=&quot;_NEW&quot;&gt;\thttp://addpix.net/viewer.php?file=06900233079028590497.jpg&lt;/a&gt;\n    &lt;a href=&quot;\thttp://addpix.net/viewer.php?file=50943098560022000981.jpg&quot; rel=&quot;nofollow&quot; target=&quot;_NEW&quot;&gt;\thttp://addpix.net/viewer.php?file=50943098560022000981.jpg&lt;/a&gt;\n    &lt;a href=&quot;\thttp://addpix.net/viewer.php?file=64704529731414732481.jpg&quot; rel=&quot;nofollow&quot; target=&quot;_NEW&quot;&gt;\thttp://addpix.net/viewer.php?file=64704529731414732481.jpg&lt;/a&gt;\n    &lt;a href=&quot;\thttp://addpix.net/viewer.php?file=47614977650755473184.jpg&quot; rel=&quot;nofollow&quot; target=&quot;_NEW&quot;&gt;\thttp://addpix.net/viewer.php?file=47614977650755473184.jpg&lt;/a&gt;\n    &lt;a href=&quot;\thttp://addpix.net/viewer.php?file=81239857038774690022.jpg&quot; rel=&quot;nofollow&quot; target=&quot;_NEW&quot;&gt;\thttp://addpix.net/viewer.php?file=81239857038774690022.jpg&lt;/a&gt;\n    &lt;a href=&quot;\thttp://addpix.net/viewer.php?file=03796891014283423670.jpg&quot; rel=&quot;nofollow&quot; target=&quot;_NEW&quot;&gt;\thttp://addpix.net/viewer.php?file=03796891014283423670.jpg&lt;/a&gt;","torrent":{"xt":"urn:btih:f0b8e9b3ba52562f63189443b90fa79b2f4c2145","amp;dn":"FAST+AND+FURIOUS+6+CAMRip+Xvid+READNFO-INFERNO","amp;tr":["udp%3A%2F%2Ftracker.openbittorrent.com%3A80","udp%3A%2F%2Fopen.demonii.com%3A1337","udp%3A%2F%2Ftracker.coppersurfer.tk%3A6969","udp%3A%2F%2Fexodus.desync.com%3A6969"],"infoHash":"f0b8e9b3ba52562f63189443b90fa79b2f4c2145","infoHashBuffer":{"type":"Buffer","data":[240,184,233,179,186,82,86,47,99,24,148,67,185,15,167,155,47,76,33,69]},"announce":[],"urlList":[]}}